<svg width="1440" height="6862" viewBox="0 0 1440 6862" fill="none" xmlns="http://www.w3.org/2000/svg">
<path d="M98.2499 0C131 173.257 114.625 415.818 0 519.772" stroke="#CE5903" stroke-opacity="0.29" stroke-width="0.5" stroke-linecap="round"/>
<path d="M229.25 0C289.291 259.886 327.5 842.031 0 1091.52" stroke="#CE5903" stroke-opacity="0.29" stroke-width="0.5" stroke-linecap="round"/>
<path d="M556.75 0C529.458 450.469 383.175 1361.8 16.3751 1403.39" stroke="#CE5903" stroke-opacity="0.29" stroke-width="0.5" stroke-linecap="round"/>
<path d="M802.374 0C758.708 485.121 540.375 1528.13 16.3751 1819.2" stroke="#CE5903" stroke-opacity="0.29" stroke-width="0.5" stroke-linecap="round"/>
<path d="M1097.12 0C933.374 589.075 582.95 1767.23 491.25 1767.23C399.55 1767.23 125.542 2772.12 0 3274.56" stroke="#CE5903" stroke-opacity="0.29" stroke-width="0.5" stroke-linecap="round"/>
<path d="M1424.62 0C605.875 1576.64 -697.574 5156.14 638.625 6860.99" stroke="#CE5903" stroke-opacity="0.29" stroke-width="0.5" stroke-linecap="round"/>
<path d="M0 6133.31C27.2916 6358.54 111.35 6819.41 229.25 6860.99" stroke="#CE5903" stroke-opacity="0.29" stroke-width="0.5" stroke-linecap="round"/>
<path d="M1441 623.73C753.251 2061.77 -212.874 4563.6 1424.63 3066.66" stroke="#CE5903" stroke-opacity="0.29" stroke-width="0.5" stroke-linecap="round"/>
<path d="M1424.63 1143.51C1037.08 1957.82 343.875 3846.32 1424.63 2650.85" stroke="#CE5903" stroke-opacity="0.29" stroke-width="0.5" stroke-linecap="round"/>
<path d="M1424.62 3430.5C764.166 3673.06 -16.3746 4781.9 851.499 6860.99" stroke="#CE5903" stroke-opacity="0.29" stroke-width="0.5" stroke-linecap="round"/>
<path d="M1441 4054.23C1015.25 4210.16 212.875 4366.09 949.75 6809.02" stroke="#CE5903" stroke-opacity="0.29" stroke-width="0.5" stroke-linecap="round"/>
<path d="M1424.62 4677.96C1108.04 4729.93 491.249 4418.07 1048 6861" stroke="#CE5903" stroke-opacity="0.29" stroke-width="0.5" stroke-linecap="round"/>
<path d="M1424.62 5145.74C1217.21 5267.02 785.999 4729.93 1162.62 6860.99" stroke="#CE5903" stroke-opacity="0.29" stroke-width="0.5" stroke-linecap="round"/>
<path d="M1441 5676.38C1302.22 5770.4 1042 5055.87 1267.52 6860.99" stroke="#CE5903" stroke-opacity="0.29" stroke-width="0.5" stroke-linecap="round"/>
<path d="M1391.87 6860.99H1424.62" stroke="#CE5903" stroke-opacity="0.29" stroke-width="0.5" stroke-linecap="round"/>
</svg>
